<?xml version="1.0" encoding="UTF-8"?>
<svg xmlns="http://www.w3.org/2000/svg" xmlns:xlink="http://www.w3.org/1999/xlink" viewBox="0 0 50 50" width="50px" height="50px">
<defs>
<radialGradient id="radial0" gradientUnits="userSpaceOnUse" cx="24" cy="24" fx="24" fy="24" r="18.5" gradientTransform="matrix(1.041666,0,0,1.041666,0,0)">
<stop offset="0" style="stop-color:rgb(0%,0%,0%);stop-opacity:1;"/>
<stop offset="1" style="stop-color:rgb(0%,0%,0%);stop-opacity:0;"/>
</radialGradient>
<radialGradient id="radial1" gradientUnits="userSpaceOnUse" cx="23.889999" cy="7.394" fx="23.889999" fy="7.394" r="37.882999" gradientTransform="matrix(1.041666,0,0,1.041666,0,0)">
<stop offset="0" style="stop-color:rgb(98.039216%,98.039216%,98.431373%);stop-opacity:1;"/>
<stop offset="1" style="stop-color:rgb(100%,100%,100%);stop-opacity:1;"/>
</radialGradient>
</defs>
<g id="surface101752797">
<path style=" stroke:none;fill-rule:nonzero;fill:rgb(0%,0%,0%);fill-opacity:1;" d="M 45.832031 25 C 45.832031 36.507812 36.507812 45.832031 25 45.832031 C 13.492188 45.832031 4.167969 36.507812 4.167969 25 C 4.167969 13.492188 13.492188 4.167969 25 4.167969 C 36.507812 4.167969 45.832031 13.492188 45.832031 25 Z M 45.832031 25 "/>
<path style=" stroke:none;fill-rule:nonzero;fill:url(#radial0);" d="M 44.269531 25 C 44.269531 35.644531 35.644531 44.269531 25 44.269531 C 14.355469 44.269531 5.730469 35.644531 5.730469 25 C 5.730469 14.355469 14.355469 5.730469 25 5.730469 C 35.644531 5.730469 44.269531 14.355469 44.269531 25 Z M 44.269531 25 "/>
<path style=" stroke:none;fill-rule:nonzero;fill:url(#radial1);" d="M 42.707031 25 C 42.707031 34.78125 34.78125 42.707031 25 42.707031 C 15.21875 42.707031 7.292969 34.78125 7.292969 25 C 7.292969 15.21875 15.21875 7.292969 25 7.292969 C 34.78125 7.292969 42.707031 15.21875 42.707031 25 Z M 42.707031 25 "/>
<path style=" stroke:none;fill-rule:nonzero;fill:rgb(100%,100%,100%);fill-opacity:1;" d="M 26.042969 10.417969 C 26.042969 10.992188 25.574219 11.457031 25 11.457031 C 24.425781 11.457031 23.957031 10.992188 23.957031 10.417969 C 23.957031 9.839844 24.425781 9.375 25 9.375 C 25.574219 9.375 26.042969 9.839844 26.042969 10.417969 Z M 25 38.542969 C 24.425781 38.542969 23.957031 39.007812 23.957031 39.582031 C 23.957031 40.160156 24.425781 40.625 25 40.625 C 25.574219 40.625 26.042969 40.160156 26.042969 39.582031 C 26.042969 39.007812 25.574219 38.542969 25 38.542969 Z M 39.582031 23.957031 C 39.007812 23.957031 38.542969 24.425781 38.542969 25 C 38.542969 25.574219 39.007812 26.042969 39.582031 26.042969 C 40.160156 26.042969 40.625 25.574219 40.625 25 C 40.625 24.425781 40.160156 23.957031 39.582031 23.957031 Z M 10.417969 23.957031 C 9.839844 23.957031 9.375 24.425781 9.375 25 C 9.375 25.574219 9.839844 26.042969 10.417969 26.042969 C 10.992188 26.042969 11.457031 25.574219 11.457031 25 C 11.457031 24.425781 10.992188 23.957031 10.417969 23.957031 Z M 10.417969 23.957031 "/>
<path style=" stroke:none;fill-rule:nonzero;fill:rgb(0%,0%,0%);fill-opacity:1;" d="M 25 36.199219 C 24.570312 36.199219 24.21875 35.847656 24.21875 35.417969 L 24.21875 25 C 24.21875 24.570312 24.570312 24.21875 25 24.21875 C 25.429688 24.21875 25.78125 24.570312 25.78125 25 L 25.78125 35.417969 C 25.78125 35.847656 25.429688 36.199219 25 36.199219 Z M 25 36.199219 "/>
<path style=" stroke:none;fill-rule:nonzero;fill:rgb(0%,0%,0%);fill-opacity:1;" d="M 25 25.78125 C 24.800781 25.78125 24.601562 25.707031 24.449219 25.550781 C 24.144531 25.246094 24.144531 24.753906 24.449219 24.445312 L 33.285156 15.609375 C 33.589844 15.304688 34.085938 15.304688 34.390625 15.609375 C 34.695312 15.914062 34.695312 16.410156 34.390625 16.714844 L 25.550781 25.550781 C 25.398438 25.707031 25.199219 25.78125 25 25.78125 Z M 25 25.78125 "/>
<path style=" stroke:none;fill-rule:nonzero;fill:rgb(0%,0%,0%);fill-opacity:1;" d="M 25 26.300781 C 24.808594 26.300781 24.617188 26.261719 24.4375 26.175781 L 16.324219 22.285156 C 15.675781 21.972656 15.402344 21.195312 15.714844 20.546875 C 16.023438 19.898438 16.804688 19.621094 17.449219 19.933594 L 25.5625 23.824219 C 26.210938 24.136719 26.484375 24.914062 26.171875 25.5625 C 25.949219 26.027344 25.484375 26.300781 25 26.300781 Z M 25 26.300781 "/>
<path style=" stroke:none;fill-rule:nonzero;fill:rgb(0%,0%,0%);fill-opacity:1;" d="M 27.082031 25 C 27.082031 26.152344 26.152344 27.082031 25 27.082031 C 23.847656 27.082031 22.917969 26.152344 22.917969 25 C 22.917969 23.847656 23.847656 22.917969 25 22.917969 C 26.152344 22.917969 27.082031 23.847656 27.082031 25 Z M 27.082031 25 "/>
</g>
</svg>
